<svg xmlns="http://www.w3.org/2000/svg" xmlns:xlink="http://www.w3.org/1999/xlink" width="512" zoomAndPan="magnify" viewBox="0 0 384 383.999986" height="512" preserveAspectRatio="xMidYMid meet" version="1.0"><defs><g/><clipPath id="fcb59997fc"><rect x="0" width="236" y="0" height="384"/></clipPath></defs><rect x="-38.4" width="460.8" fill="#ffffff" y="-38.399999" height="460.799983" fill-opacity="1"/><rect x="-38.4" width="460.8" fill="#3363ab" y="-38.399999" height="460.799983" fill-opacity="1"/><g transform="matrix(1, 0, 0, 1, 74, 0)"><g clip-path="url(#fcb59997fc)"><g fill="#ffffff" fill-opacity="1"><g transform="translate(0.968339, 320.974318)"><g><path d="M 33.75 -262.5625 L 129.78125 -262.5625 C 152.03125 -262.5625 170.09375 -256.679688 183.96875 -244.921875 C 197.851562 -233.171875 204.796875 -215.421875 204.796875 -191.671875 C 204.796875 -180.910156 202.546875 -171.21875 198.046875 -162.59375 C 193.546875 -153.96875 187.164062 -147.53125 178.90625 -143.28125 C 191.414062 -138.28125 201.109375 -130.523438 207.984375 -120.015625 C 214.859375 -109.515625 218.296875 -95.890625 218.296875 -79.140625 C 218.296875 -53.640625 210.539062 -34.070312 195.03125 -20.4375 C 179.53125 -6.8125 158.40625 0 131.65625 0 L 33.75 0 Z M 126.03125 -217.546875 L 82.515625 -217.546875 L 82.515625 -160.53125 L 127.15625 -160.53125 C 136.90625 -160.53125 144.46875 -162.59375 149.84375 -166.71875 C 155.21875 -170.84375 157.90625 -178.285156 157.90625 -189.046875 C 157.90625 -199.796875 155.15625 -207.234375 149.65625 -211.359375 C 144.15625 -215.484375 136.28125 -217.546875 126.03125 -217.546875 Z M 127.15625 -115.53125 L 82.515625 -115.53125 L 82.515625 -45.015625 L 127.15625 -45.015625 C 142.40625 -45.015625 153.28125 -48.078125 159.78125 -54.203125 C 166.28125 -60.328125 169.53125 -69.015625 169.53125 -80.265625 C 169.53125 -91.515625 166.28125 -100.203125 159.78125 -106.328125 C 153.28125 -112.460938 142.40625 -115.53125 127.15625 -115.53125 Z M 127.15625 -115.53125 "/></g></g></g></g></g></svg>